<?xml version="1.0" encoding="UTF-8"?>
<svg xmlns="http://www.w3.org/2000/svg" xmlns:xlink="http://www.w3.org/1999/xlink" id="b" viewBox="0 0 20 20" width="2000px" height="2000px">
  <defs>
    <clipPath id="d">
      <rect width="20" height="20" style="fill:none;"/>
    </clipPath>
  </defs>
  <g id="c">
    <g style="clip-path:url(#d);">
      <path d="M12.5,0H3.12C1.39,0,0,1.4,0,3.12v10C0,14.85,1.4,16.24,3.12,16.24h2.5v1.88c0,1.04.84,1.88,1.88,1.88h.62c1.04,0,1.88-.84,1.88-1.88v-.62c0,1.38,1.12,2.5,2.5,2.5h5c1.38,0,2.5-1.12,2.5-2.5v-7.48c0-1.38-1.12-2.5-2.5-2.5h-1.88V3.13C15.62,1.4,14.22,0,12.5,0h0Z" style="fill:#fff;"/>
      <path d="M2.5,3.12c0-.35.28-.62.62-.62h9.38c.35,0,.62.28.62.62v10c0,.35-.28.62-.62.62H3.12c-.35,0-.62-.28-.62-.62,0,0,0-10,0-10Z" style="fill:#bdebff;"/>
      <path d="M3.12,2.5c-.35,0-.62.28-.62.62v2.19l.87-1.09c.24-.3.6-.47.98-.47h6.92c.38,0,.74.17.98.47l.87,1.09v-2.19c0-.35-.28-.62-.62-.62,0,0-9.38,0-9.38,0Z" style="fill:#0075e3;"/>
      <path d="M7.81,11.25c1.21,0,2.19-.98,2.19-2.19s-.98-2.19-2.19-2.19-2.19.98-2.19,2.19.98,2.19,2.19,2.19Z" style="fill:#0075e3;"/>
      <path d="M5,9.06c0-1.55,1.26-2.81,2.81-2.81s2.81,1.26,2.81,2.81-1.26,2.81-2.81,2.81-2.81-1.26-2.81-2.81ZM7.81,7.5c-.86,0-1.56.7-1.56,1.56s.7,1.56,1.56,1.56,1.56-.7,1.56-1.56-.7-1.56-1.56-1.56Z" style="fill-rule:evenodd;"/>
      <path d="M4.22,12.81c.43,0,.78-.35.78-.78s-.35-.78-.78-.78-.78.35-.78.78.35.78.78.78Z"/>
      <path d="M14.38,3.12c0-1.04-.84-1.88-1.88-1.88H3.12c-1.04,0-1.88.84-1.88,1.88v10c0,1.04.84,1.88,1.88,1.88h3.75v3.12c0,.35.28.62.62.62h.62c.35,0,.62-.28.62-.62v-3.12h2.5v2.5c0,.69.56,1.25,1.25,1.25h5c.69,0,1.25-.56,1.25-1.25v-7.48c0-.69-.56-1.25-1.25-1.25h-3.12V3.13h.02ZM13.12,8.77v-1.45l-1.85-2.31h-6.92l-1.85,2.31v5.81c0,.35.28.62.62.62h8.12v-3.73c0-.69.56-1.25,1.25-1.25h.63ZM13.12,5.31v-2.19c0-.35-.28-.62-.62-.62H3.12c-.32,0-.59.25-.62.56v2.25l.87-1.09c.1-.13.23-.24.38-.32.18-.1.39-.15.6-.15h6.92c.21,0,.42.05.6.15.14.08.27.18.38.32,0,0,.87,1.09.87,1.09Z" style="fill-rule:evenodd;"/>
      <circle cx="15" cy="11.56" r="1.56" style="fill:#ff5252;"/>
      <path d="M15.78,14.53c0,.43-.35.78-.78.78s-.78-.35-.78-.78.35-.78.78-.78.78.35.78.78Z" style="fill:#ffc400;"/>
      <path d="M15.78,16.72c0,.43-.35.78-.78.78s-.78-.35-.78-.78.35-.78.78-.78.78.35.78.78Z" style="fill:#1cc871;"/>
    </g>
  </g>
</svg>
