<?xml version="1.0" encoding="UTF-8"?>
<svg xmlns="http://www.w3.org/2000/svg" xmlns:xlink="http://www.w3.org/1999/xlink" id="b" viewBox="0 0 20 20" width="2000px" height="2000px">
  <defs>
    <clipPath id="d">
      <rect width="20" height="20" style="fill:none;"/>
    </clipPath>
  </defs>
  <g id="c">
    <g style="clip-path:url(#d);">
      <path d="M15.62,3.12C15.62,1.39,14.22,0,12.5,0H3.12C1.39,0,0,1.4,0,3.12v10C0,14.85,1.4,16.24,3.12,16.24h2.5v1.88c0,1.04.84,1.88,1.88,1.88h.62c1.04,0,1.88-.84,1.88-1.88v-.21c1.03,1.27,2.61,2.09,4.38,2.09,3.11,0,5.62-2.52,5.62-5.62,0-2.68-1.87-4.92-4.38-5.49V3.13h0Z" style="fill:#fff;"/>
      <path d="M2.5,3.12c0-.35.28-.62.62-.62h9.38c.35,0,.62.28.62.62v10c0,.35-.28.62-.62.62H3.12c-.35,0-.62-.28-.62-.62,0,0,0-10,0-10Z" style="fill:#bdebff;"/>
      <path d="M3.12,2.5c-.35,0-.62.28-.62.62v2.19l.87-1.09c.24-.3.6-.47.98-.47h6.92c.38,0,.74.17.98.47l.87,1.09v-2.19c0-.35-.28-.62-.62-.62,0,0-9.38,0-9.38,0Z" style="fill:#0075e3;"/>
      <path d="M7.81,11.25c1.21,0,2.19-.98,2.19-2.19s-.98-2.19-2.19-2.19-2.19.98-2.19,2.19.98,2.19,2.19,2.19Z" style="fill:#0075e3;"/>
      <path d="M5,9.06c0-1.55,1.26-2.81,2.81-2.81s2.81,1.26,2.81,2.81-1.26,2.81-2.81,2.81-2.81-1.26-2.81-2.81ZM7.81,7.5c-.86,0-1.56.7-1.56,1.56s.7,1.56,1.56,1.56,1.56-.7,1.56-1.56-.7-1.56-1.56-1.56Z" style="fill-rule:evenodd;"/>
      <path d="M4.22,12.81c.43,0,.78-.35.78-.78s-.35-.78-.78-.78-.78.35-.78.78.35.78.78.78Z"/>
      <path d="M14.38,3.12c0-1.04-.84-1.88-1.88-1.88H3.12c-1.04,0-1.88.84-1.88,1.88v10c0,1.04.84,1.88,1.88,1.88h3.75v3.12c0,.35.28.62.62.62h.62c.35,0,.62-.28.62-.62v-3.12h1.29c.3,2.12,2.13,3.75,4.33,3.75,2.42,0,4.38-1.96,4.38-4.38s-1.96-4.38-4.38-4.38V3.11h.03ZM13.12,10.18v-2.87l-1.85-2.31h-6.92l-1.85,2.31v5.81c0,.35.28.62.62.62h6.92c.24-1.7,1.47-3.09,3.08-3.57h0ZM13.12,5.31v-2.19c0-.35-.28-.62-.62-.62H3.12c-.32,0-.59.25-.62.56v2.25l.87-1.09c.1-.13.23-.24.38-.32.18-.1.39-.15.6-.15h6.92c.21,0,.42.05.6.15.14.08.27.18.38.32,0,0,.87,1.09.87,1.09Z" style="fill-rule:evenodd;"/>
      <path d="M12.11,12.11c.9-.9,2.19-1.15,3.31-.77l-.78.78c-.67-.08-1.36.14-1.87.65-.74.74-.86,1.87-.36,2.74.13.22.05.51-.17.64s-.51.05-.64-.17c-.71-1.23-.54-2.82.51-3.87Z" style="fill:#fff;"/>
      <path d="M16.63,14.11l.78-.78c.3.87.22,1.84-.25,2.66-.13.22-.42.3-.64.17s-.3-.42-.17-.64c.25-.43.34-.93.29-1.41h-.01Z" style="fill:#fff;"/>
      <path d="M16.58,12.83c.18-.18.18-.48,0-.66s-.48-.18-.66,0l-1.88,1.88c-.18.18-.18.48,0,.66s.48.18.66,0l1.88-1.88Z" style="fill:#fff;"/>
    </g>
  </g>
</svg>
